<svg xmlns="http://www.w3.org/2000/svg" xmlns:xlink="http://www.w3.org/1999/xlink" width="1200" height="630" viewBox="0 0 1200 630">
  <defs>
    <linearGradient id="paper" x2="0" y2="1"><stop stop-color="#fff8f1"/><stop offset="1" stop-color="#fce4dc"/></linearGradient>
    <radialGradient id="glow"><stop stop-color="#fffdf8" stop-opacity=".9"/><stop offset="1" stop-color="#fffdf8" stop-opacity="0"/></radialGradient>
    <linearGradient id="curtain"><stop stop-color="#582043"/><stop offset=".55" stop-color="#915272"/><stop offset="1" stop-color="#4b1d3d"/></linearGradient>
    <filter id="cake-shadow" x="-20%" y="-20%" width="140%" height="150%"><feDropShadow dx="0" dy="18" stdDeviation="17" flood-color="#5b3147" flood-opacity=".23"/></filter>
    <filter id="soft-shadow" x="-20%" y="-30%" width="140%" height="170%"><feDropShadow dx="0" dy="8" stdDeviation="11" flood-color="#9a6a7e" flood-opacity=".12"/></filter>
  </defs>
  <rect width="1200" height="630" fill="url(#paper)"/>
  <ellipse cx="585" cy="120" rx="540" ry="340" fill="url(#glow)"/>
  <rect x="27" y="26" width="1146" height="578" rx="30" fill="none" stroke="#d8b9c6" stroke-opacity=".74" stroke-width="2"/>
  <path d="M0 0h270c-7 44-43 75-104 94C95 117 35 101 0 52Z" fill="url(#curtain)" opacity=".9"/>
  <path d="M1200 0H930c7 44 43 75 104 94 71 23 131 7 166-42Z" fill="url(#curtain)" opacity=".9"/>
  <g stroke="#f3c4d5" opacity=".18" stroke-width="4"><path d="M36 0 61 80M86 0l29 97M145 0l24 92M201 0l12 77"/><path d="M1164 0l-25 80M1114 0l-29 97M1055 0l-24 92M999 0l-12 77"/></g>
  <g fill="#b88790" opacity=".72"><path d="m672 116 4 12 12 4-12 4-4 12-4-12-12-4 12-4Z"/><circle cx="734" cy="182" r="3"/><circle cx="1044" cy="142" r="4"/></g>
  <text x="92" y="176" fill="#8f5973" font-family="Arial, sans-serif" font-size="22" font-weight="700" letter-spacing="6">HAPPY BIRTHDAY</text>
  <g fill="#39233f" font-family="Yu Gothic, Hiragino Kaku Gothic ProN, Noto Sans CJK JP, sans-serif" font-size="68" font-weight="800" filter="url(#soft-shadow)">
    <text x="84" y="286">きょうは、</text>
    <text x="84" y="376">あなたが主役。</text>
  </g>
  <text x="91" y="447" fill="#76586a" font-family="Yu Gothic, Hiragino Kaku Gothic ProN, Noto Sans CJK JP, sans-serif" font-size="26" font-weight="500">ふーっと吹いて、お祝いしよう。</text>
  <path d="M92 500h384" stroke="#d3b8bf" stroke-width="2"/>
  <text x="91" y="549" fill="#79586a" font-family="Arial, sans-serif" font-size="17" font-weight="700" letter-spacing="2.4">TAKOYAKI PROJECT</text>
  <ellipse cx="912" cy="515" rx="230" ry="36" fill="#b47c83" opacity=".14"/>
  <image x="690" y="255" width="464" height="303" xlink:href="assets/cake-base-v2.png" filter="url(#cake-shadow)"/>
</svg>
